<?xml version="1.0" encoding="iso-8859-1"?>
<!-- Generator: Adobe Illustrator 19.0.0, SVG Export Plug-In . SVG Version: 6.00 Build 0)  -->
<svg version="1.1" id="Capa_1" xmlns="http://www.w3.org/2000/svg" xmlns:xlink="http://www.w3.org/1999/xlink" x="0px" y="0px"
	 viewBox="0 0 512 512" style="enable-background:new 0 0 512 512;" xml:space="preserve">
<path style="fill:#E8EAE9;" d="M165.333,237.867v-99.2c0-51.2,41.6-92.8,92.8-92.8s92.8,41.6,92.8,92.8v99.2H396.8v-99.2
	C396.8,61.867,333.867,0,258.133,0c-76.8,0-138.667,62.933-138.667,138.667v99.2H165.333z"/>
<path style="fill:#F7B64C;" d="M408.533,215.467H103.467c-23.467,0-42.667,19.2-42.667,42.667v211.2C60.8,492.8,80,512,103.467,512
	h305.067C432,512,451.2,492.8,451.2,469.333v-211.2C451.2,233.6,432,215.467,408.533,215.467z"/>
<rect x="106.667" y="261.333" style="fill:#FFD15C;" width="297.6" height="204.8"/>
<path style="fill:#415A6B;" d="M276.267,376.533l14.933,38.4h-71.467l14.933-38.4c-9.6-6.4-14.933-17.067-14.933-28.8
	c0-19.2,16-35.2,35.2-35.2s35.2,16,35.2,35.2C291.2,359.467,285.867,370.133,276.267,376.533z"/>
<g>
</g>
<g>
</g>
<g>
</g>
<g>
</g>
<g>
</g>
<g>
</g>
<g>
</g>
<g>
</g>
<g>
</g>
<g>
</g>
<g>
</g>
<g>
</g>
<g>
</g>
<g>
</g>
<g>
</g>
</svg>
