<svg xmlns="http://www.w3.org/2000/svg" width="84" height="84" viewBox="0 0 84 84">
  <g id="Group_1015" data-name="Group 1015" transform="translate(-469 -3221)">
    <rect id="Rectangle_261" data-name="Rectangle 261" width="84" height="84" rx="8" transform="translate(469 3221)" fill="#0070dd"/>
    <g id="business-affiliate-network" transform="translate(488 3239.089)">
      <g id="Layer_1_110_">
        <g id="Group_993" data-name="Group 993">
          <path id="Path_537" data-name="Path 537" d="M17.567,15.938l-2.859-2.7a4.19,4.19,0,0,0,.539-2.029,4.269,4.269,0,1,0-2,3.587l2.855,2.7A9.711,9.711,0,0,1,17.567,15.938Z" fill="#fff"/>
          <path id="Path_538" data-name="Path 538" d="M29.66,15.6l3.8-6.393a4.193,4.193,0,1,0-1.843-1.076l-3.787,6.375A9.487,9.487,0,0,1,29.66,15.6Z" fill="#fff"/>
          <path id="Path_539" data-name="Path 539" d="M42.762,20.952a4.236,4.236,0,0,0-3.968,2.775l-5.278-.521c0,.04.006.078.006.117a9.719,9.719,0,0,1-.213,2.009l5.276.521a4.234,4.234,0,1,0,4.177-4.9Z" fill="#fff"/>
          <path id="Path_540" data-name="Path 540" d="M28.2,37.624l-1.18-5.156a9.662,9.662,0,0,1-2.082.481l1.182,5.157a4.228,4.228,0,1,0,2.08-.482Z" fill="#fff"/>
          <path id="Path_541" data-name="Path 541" d="M14.357,25.37l-6.57,2.2a4.233,4.233,0,1,0,.694,2.313c0-.1-.021-.188-.029-.284l6.591-2.207A9.682,9.682,0,0,1,14.357,25.37Z" fill="#fff"/>
          <circle id="Ellipse_159" data-name="Ellipse 159" cx="7.271" cy="7.271" r="7.271" transform="translate(16.559 16.052)" fill="#fff"/>
        </g>
      </g>
    </g>
  </g>
</svg>
