<svg xmlns="http://www.w3.org/2000/svg" xmlns:xlink="http://www.w3.org/1999/xlink" width="129" height="129" viewBox="0 0 129 129">
  <defs>
    <filter id="Ellipse_115" x="0" y="0" width="129" height="129" filterUnits="userSpaceOnUse">
      <feOffset dy="7" input="SourceAlpha"/>
      <feGaussianBlur stdDeviation="7.5" result="blur"/>
      <feFlood flood-color="#6a9dbc" flood-opacity="0.2"/>
      <feComposite operator="in" in2="blur"/>
      <feComposite in="SourceGraphic"/>
    </filter>
  </defs>
  <g id="Group_1008" data-name="Group 1008" transform="translate(-455.5 -1763.5)">
    <g transform="matrix(1, 0, 0, 1, 455.5, 1763.5)" filter="url(#Ellipse_115)">
      <circle id="Ellipse_115-2" data-name="Ellipse 115" cx="42" cy="42" r="42" transform="translate(22.5 15.5)" fill="#fff"/>
    </g>
    <g id="quality" transform="translate(450.334 1803)">
      <g id="Group_947" data-name="Group 947" transform="translate(58.754 28.01)">
        <g id="Group_946" data-name="Group 946" transform="translate(0)">
          <path id="Path_505" data-name="Path 505" d="M107.942,391.572a4.557,4.557,0,0,1-5.163.773,4.7,4.7,0,0,1-1.588-1.232L98.8,396.4a.459.459,0,0,0,.542.632l1.739-.484a2.215,2.215,0,0,1,2.591,1.172l.785,1.625a.459.459,0,0,0,.832-.011l3.8-8.4A2.852,2.852,0,0,0,107.942,391.572Z" transform="translate(-98.758 -390.926)" fill="#0070dd"/>
        </g>
      </g>
      <g id="Group_949" data-name="Group 949" transform="translate(70.953 28.01)">
        <g id="Group_948" data-name="Group 948" transform="translate(0)">
          <path id="Path_506" data-name="Path 506" d="M279.312,396.4l-2.389-5.284a4.7,4.7,0,0,1-1.588,1.232,4.557,4.557,0,0,1-5.163-.773,2.851,2.851,0,0,0-1.15-.646l3.8,8.4a.459.459,0,0,0,.832.011l.785-1.625a2.215,2.215,0,0,1,2.591-1.172l1.739.484a.459.459,0,0,0,.542-.632Z" transform="translate(-269.022 -390.926)" fill="#0070dd"/>
        </g>
      </g>
      <g id="Group_951" data-name="Group 951" transform="translate(55.666)">
        <g id="Group_950" data-name="Group 950" transform="translate(0)">
          <path id="Path_507" data-name="Path 507" d="M83.12,14.888a4.663,4.663,0,0,1-1.4-6.141,2.882,2.882,0,0,0-3.342-4.191A4.664,4.664,0,0,1,72.7,1.824a2.882,2.882,0,0,0-5.361,0,4.664,4.664,0,0,1-5.675,2.733,2.882,2.882,0,0,0-3.342,4.191,4.663,4.663,0,0,1-1.4,6.141,2.882,2.882,0,0,0,1.193,5.226,4.664,4.664,0,0,1,3.927,4.924,2.882,2.882,0,0,0,4.83,2.326,4.663,4.663,0,0,1,6.3,0A2.882,2.882,0,0,0,78,25.039a4.664,4.664,0,0,1,3.927-4.924,2.882,2.882,0,0,0,1.193-5.227Zm-13.1,9.181a9.431,9.431,0,1,1,9.431-9.431A9.441,9.441,0,0,1,70.02,24.069Z" transform="translate(-55.666 0)" fill="#0070dd"/>
        </g>
      </g>
      <g id="Group_953" data-name="Group 953" transform="translate(62.348 6.966)">
        <g id="Group_952" data-name="Group 952" transform="translate(0)">
          <path id="Path_508" data-name="Path 508" d="M156.592,97.225a7.672,7.672,0,1,0,7.672,7.672A7.681,7.681,0,0,0,156.592,97.225Zm3.932,6.928-4.775,3.488a.879.879,0,0,1-1.238-.2l-1.428-2.034a.879.879,0,1,1,1.439-1.011l.914,1.3,4.052-2.959a.879.879,0,1,1,1.037,1.42Z" transform="translate(-148.92 -97.225)" fill="#0070dd"/>
        </g>
      </g>
    </g>
  </g>
</svg>
