<svg xmlns="http://www.w3.org/2000/svg" width="80" height="80" viewBox="0 0 80 80">
  <g id="Group_969" data-name="Group 969" transform="translate(-267 -2676)">
    <rect id="Rectangle_259" data-name="Rectangle 259" width="80" height="80" rx="8" transform="translate(267 2676)" fill="#0070dd"/>
    <g id="wallet-filled-money-tool" transform="translate(288.665 2680.729)">
      <g id="Group_991" data-name="Group 991" transform="translate(0 17.84)">
        <path id="Path_530" data-name="Path 530" d="M161.529,24.632l14.818-4.045L175.562,19a2.088,2.088,0,0,0-2.8-.943L159.5,24.632Z" transform="translate(-152.842 -17.84)" fill="#fff"/>
        <path id="Path_531" data-name="Path 531" d="M336.663,86.46a2.086,2.086,0,0,0-.551.075l-3.481.952L322,90.388h17.326L338.675,88A2.083,2.083,0,0,0,336.663,86.46Z" transform="translate(-308.56 -83.596)" fill="#fff"/>
        <path id="Path_532" data-name="Path 532" d="M32.941,215.56H2.091A2.09,2.09,0,0,0,.075,217.1a2.16,2.16,0,0,0-.075.547V240.9a2.088,2.088,0,0,0,2.087,2.087h30.85a2.088,2.088,0,0,0,2.087-2.087v-5.823H22.64a3.55,3.55,0,0,1-3.548-3.548v-4.641a3.543,3.543,0,0,1,3.544-3.544H35.024v-5.7A2.082,2.082,0,0,0,32.941,215.56Z" transform="translate(0 -207.307)" fill="#fff"/>
        <path id="Path_533" data-name="Path 533" d="M508.336,437.308a2.085,2.085,0,0,0-.73-.434,2.129,2.129,0,0,0-.676-.113H494.487a2.088,2.088,0,0,0-2.087,2.087v4.646a2.088,2.088,0,0,0,2.087,2.087H506.93a2.127,2.127,0,0,0,.676-.113,2.024,2.024,0,0,0,.73-.434,2.08,2.08,0,0,0,.68-1.54v-4.646A2.08,2.08,0,0,0,508.336,437.308Zm-9.492,4.278a1.044,1.044,0,0,1-1.044,1.043h-.693a1.044,1.044,0,0,1-1.044-1.043v-.693a1.023,1.023,0,0,1,.4-.818,1.054,1.054,0,0,1,.643-.225h.693a1.044,1.044,0,0,1,1.044,1.044v.693Z" transform="translate(-471.847 -419.275)" fill="#fff"/>
      </g>
    </g>
  </g>
</svg>
