<svg xmlns="http://www.w3.org/2000/svg" width="80" height="80" viewBox="0 0 80 80">
  <g id="Group_1013" data-name="Group 1013" transform="translate(-842 -2680)">
    <rect id="Rectangle_259" data-name="Rectangle 259" width="80" height="80" rx="8" transform="translate(842 2680)" fill="#0070dd"/>
    <g id="wallet" transform="translate(862.836 2700.836)">
      <g id="Group_974" data-name="Group 974" transform="translate(27.129 22.607)">
        <g id="Group_973" data-name="Group 973">
          <path id="Path_520" data-name="Path 520" d="M372.478,302h-6.737c-4.45,0-4.453,6.737,0,6.737h6.737a1.123,1.123,0,0,0,1.123-1.123v-4.492A1.123,1.123,0,0,0,372.478,302Zm-6.737,4.492a1.123,1.123,0,1,1,1.123-1.123A1.123,1.123,0,0,1,365.741,306.492Z" transform="translate(-362.402 -302)" fill="#fff"/>
        </g>
      </g>
      <g id="Group_976" data-name="Group 976" transform="translate(1.298 6.737)">
        <g id="Group_975" data-name="Group 975">
          <path id="Path_521" data-name="Path 521" d="M18.253,90.635a1.881,1.881,0,0,0,0,3.219,4.408,4.408,0,0,0,2.287.637V90A4.407,4.407,0,0,0,18.253,90.635Z" transform="translate(-17.344 -90)" fill="#fff"/>
        </g>
      </g>
      <g id="Group_978" data-name="Group 978" transform="translate(6.737)">
        <g id="Group_977" data-name="Group 977">
          <path id="Path_522" data-name="Path 522" d="M93.369,0A3.364,3.364,0,0,0,90,3.369v7.86h4.492V0Z" transform="translate(-90)" fill="#fff"/>
        </g>
      </g>
      <g id="Group_980" data-name="Group 980" transform="translate(15.72)">
        <g id="Group_979" data-name="Group 979">
          <path id="Path_523" data-name="Path 523" d="M218.01,0H210V11.229h11.379V3.369A3.364,3.364,0,0,0,218.01,0Z" transform="translate(-210)" fill="#fff"/>
        </g>
      </g>
      <g id="Group_982" data-name="Group 982" transform="translate(29.345 6.85)">
        <g id="Group_981" data-name="Group 981">
          <path id="Path_524" data-name="Path 524" d="M392,91.5v4.379h4.379A5.626,5.626,0,0,0,392,91.5Z" transform="translate(-392 -91.5)" fill="#fff"/>
        </g>
      </g>
      <g id="Group_984" data-name="Group 984" transform="translate(0 11.722)">
        <g id="Group_983" data-name="Group 983">
          <path id="Path_525" data-name="Path 525" d="M30.467,165.231h5.614v-1.273a5.591,5.591,0,0,0-2.251-4.467c0-.009,0-.016,0-.025v-1.123H4.492A6.686,6.686,0,0,1,0,156.592v20.991A5.621,5.621,0,0,0,5.614,183.2H30.467a5.621,5.621,0,0,0,5.614-5.614V176.46H30.467C23.051,176.46,23.046,165.231,30.467,165.231ZM19.089,176.46H17.966v1.123a1.123,1.123,0,0,1-2.246,0V176.46H12.352a1.123,1.123,0,0,1,0-2.246h1.123v-6.737H12.352a1.123,1.123,0,0,1,0-2.246H15.72v-1.123a1.123,1.123,0,0,1,2.246,0v1.123h1.123a3.36,3.36,0,0,1,2.492,5.614A3.36,3.36,0,0,1,19.089,176.46Z" transform="translate(0 -156.592)" fill="#fff"/>
        </g>
      </g>
      <g id="Group_986" data-name="Group 986" transform="translate(15.72 27.099)">
        <g id="Group_985" data-name="Group 985">
          <path id="Path_526" data-name="Path 526" d="M213.369,362H210v2.246h3.369A1.123,1.123,0,0,0,213.369,362Z" transform="translate(-210 -362)" fill="#fff"/>
        </g>
      </g>
      <g id="Group_988" data-name="Group 988" transform="translate(15.72 22.607)">
        <g id="Group_987" data-name="Group 987">
          <path id="Path_527" data-name="Path 527" d="M213.369,302H210v2.246h3.369A1.123,1.123,0,0,0,213.369,302Z" transform="translate(-210 -302)" fill="#fff"/>
        </g>
      </g>
    </g>
  </g>
</svg>
