<svg id="Layer_1" data-name="Layer 1" xmlns="http://www.w3.org/2000/svg" viewBox="0 0 518.4 147.66"><defs><style>.cls-1{fill:#68c7f1;}.cls-2{fill:#2eabe3;}.cls-3,.cls-4,.cls-6{fill:#2467b0;}.cls-4{font-size:105.9px;font-family:Gordita-Bold, Gordita;font-weight:700;letter-spacing:-0.12em;}.cls-5{letter-spacing:-0.05em;}.cls-6{font-size:22.94px;font-family:Gordita-Light, Gordita;font-weight:300;}.cls-7{letter-spacing:-0.01em;}.cls-8{letter-spacing:-0.01em;}.cls-9{letter-spacing:-0.03em;}.cls-10{letter-spacing:0em;}</style></defs><path class="cls-1" d="M266.91,268.67v-35a10.9,10.9,0,0,0-1-4.75,8.88,8.88,0,0,0-3.66-4,9.41,9.41,0,0,0-10.06.62L198.08,262l47.85,32.74a38.55,38.55,0,0,0,12.52-7.22.69.69,0,0,1,.13-.11A24.89,24.89,0,0,0,266.91,268.67Z" transform="translate(-161.74 -223.81)"/><path class="cls-2" d="M245.93,294.78,198.08,262l-28.22,18.53c-.62.38-7.69,4.93-8.1,13.62a17.07,17.07,0,0,0,8.1,15.21l55.92,37.92Z" transform="translate(-161.74 -223.81)"/><path class="cls-3" d="M246,361.13c5.41,3.88,11,6.32,15.76,3.85.26-.13.51-.28.75-.43a9.87,9.87,0,0,0,4.4-8.39V321.1a24.4,24.4,0,0,0-5.67-15.64l-.09-.11a36,36,0,0,0-15.22-10.57l-30.55,20.63c-.36.19-7.29,4-7.73,11.9-.35,6.36,4.17,9.82,10.07,14.5Z" transform="translate(-161.74 -223.81)"/><text class="cls-4" transform="translate(134.63 97.77)">V<tspan class="cls-5" x="70.42" y="0">alorEx</tspan></text><text class="cls-6" transform="translate(161.81 141.53)">Cry<tspan class="cls-7" x="40.61" y="0">p</tspan><tspan class="cls-8" x="55.85" y="0">t</tspan><tspan x="63.47" y="0">o E</tspan><tspan class="cls-9" x="100.2" y="0">x</tspan><tspan class="cls-10" x="111.86" y="0">change</tspan></text></svg>