<svg xmlns="http://www.w3.org/2000/svg" width="84" height="84" viewBox="0 0 84 84">
  <g id="Group_1014" data-name="Group 1014" transform="translate(-129 -3221)">
    <rect id="Rectangle_260" data-name="Rectangle 260" width="84" height="84" rx="8" transform="translate(129 3221)" fill="#0070dd"/>
    <g id="id-card" transform="translate(152.729 3193.889)">
      <g id="Group_992" data-name="Group 992" transform="translate(0 53.95)">
        <path id="Path_534" data-name="Path 534" d="M170.413,59.8h8.3a1.513,1.513,0,0,0,1.513-1.513V57.261a1.513,1.513,0,0,0-1.513-1.513h-.467v-.64a1.16,1.16,0,0,0-1.159-1.159h-5.05a1.16,1.16,0,0,0-1.159,1.159v.64h-.467a1.513,1.513,0,0,0-1.513,1.513v1.024A1.508,1.508,0,0,0,170.413,59.8Z" transform="translate(-156.189 -53.95)" fill="#fff"/>
        <path id="Path_535" data-name="Path 535" d="M32.52,106.55H25.43v.376a2.92,2.92,0,0,1-2.913,2.913H14.224a2.92,2.92,0,0,1-2.913-2.913v-.376H4.222A4.22,4.22,0,0,0,0,110.772v16.219a4.22,4.22,0,0,0,4.222,4.222h28.3a4.22,4.22,0,0,0,4.222-4.222V110.772A4.225,4.225,0,0,0,32.52,106.55ZM10.574,126.193a7.308,7.308,0,1,1,7.308-7.308A7.31,7.31,0,0,1,10.574,126.193Zm22.044-3.206H20.283v-1.573H32.61v1.573Zm0-3.319H20.283v-1.573H32.61v1.573Zm0-3.319H20.283v-1.573H32.61v1.573Z" transform="translate(0 -102.591)" fill="#fff"/>
        <path id="Path_536" data-name="Path 536" d="M68.3,192.05a5.9,5.9,0,0,0-4.6,9.6,1.22,1.22,0,0,1,.858-1.167,7.164,7.164,0,0,0,2.1-.956l.873,2.755.12.376.391-1.106c-.978-1.362.256-1.31.256-1.31s1.234-.053.256,1.31l.384,1.1.12-.369v.008l.135-.437.73-2.318a7.165,7.165,0,0,0,2.1.956,1.22,1.22,0,0,1,.858,1.167,5.9,5.9,0,0,0-4.583-9.6Zm2.333,5.208c-.151.542-.3.7-.406.707a2.35,2.35,0,0,1-1.422,1.761,1.56,1.56,0,0,1-1.046,0,2.318,2.318,0,0,1-1.422-1.761c-.105-.008-.256-.158-.406-.707-.211-.745.015-.858.2-.835a2.343,2.343,0,0,1-.083-.309h0a2.3,2.3,0,0,1-.008-.986,2.219,2.219,0,0,1,.572-1.008,2.9,2.9,0,0,1,.527-.437,2.2,2.2,0,0,1,.512-.263h0a1.6,1.6,0,0,1,.467-.09,1.91,1.91,0,0,1,1.174.248,1.437,1.437,0,0,1,.572.534s.948.068.632,2a1.716,1.716,0,0,1-.083.309C70.618,196.408,70.844,196.513,70.633,197.258Z" transform="translate(-57.704 -181.657)" fill="#fff"/>
      </g>
    </g>
  </g>
</svg>
