<svg xmlns="http://www.w3.org/2000/svg" width="84" height="84" viewBox="0 0 84 84">
  <g id="Group_1019" data-name="Group 1019" transform="translate(-129 -3498)">
    <rect id="Rectangle_263" data-name="Rectangle 263" width="84" height="84" rx="8" transform="translate(129 3498)" fill="#0070dd"/>
    <g id="padlock" transform="translate(98.263 3519.076)">
      <g id="Group_995" data-name="Group 995" transform="translate(56.8)">
        <path id="Path_543" data-name="Path 543" d="M60.357,12.39V16.7H60.07a3.273,3.273,0,0,0-3.27,3.27V37.978a3.273,3.273,0,0,0,3.27,3.27H85.2a3.273,3.273,0,0,0,3.27-3.27V19.958a3.273,3.273,0,0,0-3.27-3.27h-.084V12.381a12.381,12.381,0,1,0-24.762.008ZM74.575,29.769a.7.7,0,0,0-.32.657c.008,1.323.008,2.638.008,3.961h0a1.41,1.41,0,0,1-.742,1.332,1.544,1.544,0,0,1-2.309-1.332v-.008c0-1.323,0-2.646.008-3.97a.674.674,0,0,0-.295-.624,3.017,3.017,0,0,1-.995-3.717,3.079,3.079,0,0,1,5.891,1.214A2.924,2.924,0,0,1,74.575,29.769Zm-8.8-17.379a6.962,6.962,0,0,1,13.924,0V16.7H65.776Z" transform="translate(-56.8)" fill="#fff"/>
      </g>
    </g>
  </g>
</svg>
