<svg xmlns="http://www.w3.org/2000/svg" xmlns:xlink="http://www.w3.org/1999/xlink" width="129" height="129" viewBox="0 0 129 129">
  <defs>
    <filter id="Ellipse_158" x="0" y="0" width="129" height="129" filterUnits="userSpaceOnUse">
      <feOffset dy="7" input="SourceAlpha"/>
      <feGaussianBlur stdDeviation="7.5" result="blur"/>
      <feFlood flood-color="#6a9dbc" flood-opacity="0.2"/>
      <feComposite operator="in" in2="blur"/>
      <feComposite in="SourceGraphic"/>
    </filter>
  </defs>
  <g id="Group_1010" data-name="Group 1010" transform="translate(-455.5 -2040.5)">
    <g transform="matrix(1, 0, 0, 1, 455.5, 2040.5)" filter="url(#Ellipse_158)">
      <circle id="Ellipse_158-2" data-name="Ellipse 158" cx="42" cy="42" r="42" transform="translate(22.5 15.5)" fill="#fff"/>
    </g>
    <g id="like" transform="translate(474.444 2080)">
      <g id="Group_956" data-name="Group 956" transform="translate(53.16 6.164)">
        <g id="Group_955" data-name="Group 955">
          <path id="Path_510" data-name="Path 510" d="M364.289,90.17h-2.055a1.027,1.027,0,0,0,0,2.055h2.055a1.027,1.027,0,0,0,0-2.055Z" transform="translate(-361.207 -90.17)" fill="#0070dd"/>
        </g>
      </g>
      <g id="Group_958" data-name="Group 958" transform="translate(42.885 0)">
        <g id="Group_957" data-name="Group 957" transform="translate(0 0)">
          <path id="Path_511" data-name="Path 511" d="M213.881,2.622,212.854.567a1.028,1.028,0,0,0-1.838.919l1.027,2.055a1.028,1.028,0,1,0,1.838-.919Z" transform="translate(-210.907 0)" fill="#0070dd"/>
        </g>
      </g>
      <g id="Group_960" data-name="Group 960" transform="translate(50.077 0)">
        <g id="Group_959" data-name="Group 959">
          <path id="Path_512" data-name="Path 512" d="M318.627.108a1.03,1.03,0,0,0-1.379.46l-1.027,2.055a1.028,1.028,0,0,0,1.838.919l1.027-2.055A1.027,1.027,0,0,0,318.627.108Z" transform="translate(-316.112 0)" fill="#0070dd"/>
        </g>
      </g>
      <g id="Group_962" data-name="Group 962" transform="translate(38.776 6.164)">
        <g id="Group_961" data-name="Group 961" transform="translate(0)">
          <path id="Path_513" data-name="Path 513" d="M153.875,90.17H151.82a1.027,1.027,0,0,0,0,2.055h2.055a1.027,1.027,0,1,0,0-2.055Z" transform="translate(-150.793 -90.17)" fill="#0070dd"/>
        </g>
      </g>
      <g id="Group_964" data-name="Group 964" transform="translate(30.556 16.507)">
        <g id="Group_963" data-name="Group 963" transform="translate(0)">
          <path id="Path_514" data-name="Path 514" d="M35.693,241.468h-4.11a1.028,1.028,0,0,0-1.027,1.027v16.439a1.028,1.028,0,0,0,1.027,1.027h4.11a1.027,1.027,0,0,0,1.027-1.027V242.5A1.027,1.027,0,0,0,35.693,241.468Z" transform="translate(-30.556 -241.468)" fill="#0070dd"/>
        </g>
      </g>
      <g id="Group_966" data-name="Group 966" transform="translate(38.776 6.233)">
        <g id="Group_965" data-name="Group 965" transform="translate(0)">
          <path id="Path_515" data-name="Path 515" d="M173.377,104.17a3.231,3.231,0,0,0-3.274-2.724h-8.01c.681-1.219,1.046-4.667,1.03-6.075a4.278,4.278,0,0,0-4.289-4.2h-.848a1.027,1.027,0,0,0-1.027,1.027c0,2.376-.925,6.664-2.67,8.409a11.381,11.381,0,0,1-3.495,2.258v15.417a24,24,0,0,0,8.475,1.657h6.721a3.124,3.124,0,0,0,3.081-4.218,3.083,3.083,0,0,0,2.055-4.11,3.084,3.084,0,0,0,1.485-5.029A3.076,3.076,0,0,0,173.377,104.17Z" transform="translate(-150.794 -91.172)" fill="#0070dd"/>
        </g>
      </g>
    </g>
  </g>
</svg>
