<svg xmlns="http://www.w3.org/2000/svg" width="84" height="84" viewBox="0 0 84 84">
  <g id="Group_1016" data-name="Group 1016" transform="translate(-818 -3221)">
    <rect id="Rectangle_262" data-name="Rectangle 262" width="84" height="84" rx="8" transform="translate(818 3221)" fill="#0070dd"/>
    <g id="shield" transform="translate(811.037 3244.986)">
      <g id="Group_994" data-name="Group 994" transform="translate(33.908 0)">
        <path id="Path_542" data-name="Path 542" d="M64.325,9.315c-.043-.952-.043-1.861-.043-2.77a1.275,1.275,0,0,0-1.3-1.3c-5.409,0-9.52-1.558-12.939-4.89a1.335,1.335,0,0,0-1.818,0c-3.419,3.332-7.53,4.89-12.939,4.89a1.275,1.275,0,0,0-1.3,1.3c0,.909,0,1.817-.043,2.77C33.774,18.4,33.514,30.865,48.7,36.1l.433.087.433-.087C64.715,30.865,64.5,18.445,64.325,9.315ZM48.1,21.907a1.4,1.4,0,0,1-.909.346h-.043a1.218,1.218,0,0,1-.909-.433l-4.024-4.457,1.947-1.731,3.159,3.505,7.01-6.664,1.774,1.9Z" transform="translate(-33.908 0)" fill="#fff"/>
      </g>
    </g>
  </g>
</svg>
