<svg xmlns="http://www.w3.org/2000/svg" width="80" height="80" viewBox="0 0 80 80">
  <g id="Group_1012" data-name="Group 1012" transform="translate(-502 -2680)">
    <rect id="Rectangle_259" data-name="Rectangle 259" width="80" height="80" rx="8" transform="translate(502 2680)" fill="#0070dd"/>
    <g id="bitcoin-logo" transform="translate(462.491 2701.189)">
      <path id="Path_519" data-name="Path 519" d="M91.366,19.253a6.622,6.622,0,0,0-3.86-2.271q3.286-1.676,2.889-5.691a5.623,5.623,0,0,0-.805-2.524,5.052,5.052,0,0,0-1.82-1.72,10.017,10.017,0,0,0-2.492-.993,19.663,19.663,0,0,0-3.088-.5V0h-3.4V5.4q-.882,0-2.69.044V0h-3.4V5.558q-.728.022-2.139.022l-4.676-.022V9.175h2.448a1.752,1.752,0,0,1,1.963,1.5V17a2.242,2.242,0,0,1,.353.022H70.3v8.866a1.178,1.178,0,0,1-1.279,1.125H66.577l-.684,4.036H70.3q.419,0,1.213.01t1.191.011V36.7h3.4V31.141q.926.023,2.69.022V36.7h3.4V31.075a26.4,26.4,0,0,0,3.209-.331,13.059,13.059,0,0,0,2.68-.761,7.231,7.231,0,0,0,2.139-1.29,6.089,6.089,0,0,0,1.423-1.963,8.344,8.344,0,0,0,.716-2.757A6.533,6.533,0,0,0,91.366,19.253ZM76.17,9.417q.154,0,.871-.011t1.191-.022q.474-.011,1.279.055a12.169,12.169,0,0,1,1.356.176,7.555,7.555,0,0,1,1.213.364,3.287,3.287,0,0,1,1.058.617,3.063,3.063,0,0,1,.673.926,2.892,2.892,0,0,1,.276,1.29,3.068,3.068,0,0,1-.2,1.125,2.12,2.12,0,0,1-.6.849,6.033,6.033,0,0,1-.816.6,3.737,3.737,0,0,1-1.07.408q-.65.154-1.135.243a9.3,9.3,0,0,1-1.213.121q-.728.033-1.1.044t-1.026,0q-.651-.011-.761-.011V9.417h0Zm9.274,15.019a3.136,3.136,0,0,1-.54.883,3.063,3.063,0,0,1-.871.661,7.473,7.473,0,0,1-1.047.463,8.432,8.432,0,0,1-1.224.309q-.718.132-1.258.187t-1.29.088q-.75.032-1.169.033t-1.059-.011q-.64-.01-.816-.011V19.584q.176,0,1.048-.022t1.423-.022q.551,0,1.522.066a13,13,0,0,1,1.632.2,10.73,10.73,0,0,1,1.444.408,4.189,4.189,0,0,1,1.268.673,3.31,3.31,0,0,1,.816,1.015,3.151,3.151,0,0,1,.122,2.537Z" fill="#fff"/>
    </g>
  </g>
</svg>
